<svg width="29" height="29" viewBox="0 0 29 29" fill="none" xmlns="http://www.w3.org/2000/svg">
<path d="M17.124 25.375H8.45833C6.17988 25.375 5.04065 25.375 4.33283 24.6672C3.625 23.9593 3.625 22.8201 3.625 20.5417V8.45833C3.625 6.17988 3.625 5.04065 4.33283 4.33283C5.04065 3.625 6.17988 3.625 8.45833 3.625H20.5417C22.8201 3.625 23.9594 3.625 24.6672 4.33283C25.375 5.04065 25.375 6.17988 25.375 8.45833V17.124C25.375 17.6179 25.375 17.8648 25.283 18.0869C25.191 18.309 25.0164 18.4836 24.6672 18.8328L18.8328 24.6672C18.4836 25.0164 18.309 25.191 18.0869 25.283C17.8648 25.375 17.6179 25.375 17.124 25.375Z" stroke="white" stroke-width="2"/>
<path d="M16.9165 25.375V19.7361C16.9165 18.407 16.9165 17.7425 17.3294 17.3296C17.7423 16.9167 18.4069 16.9167 19.7359 16.9167H25.3748" stroke="white" stroke-width="2"/>
</svg>
