<svg width="28" height="29" viewBox="0 0 28 29" fill="none" xmlns="http://www.w3.org/2000/svg">
<path d="M20.6667 6.16667H7.33333M20.6667 6.16667C23.1808 6.16667 24.4379 6.16666 25.219 6.98026C26 7.79385 26 9.10331 26 11.7222M20.6667 6.16667V2M26 11.7222V21.4444C26 24.0634 26 25.3728 25.219 26.1864C24.4379 27 23.1808 27 20.6667 27H7.33333C4.81918 27 3.5621 27 2.78105 26.1864C2 25.3728 2 24.0634 2 21.4444V11.7222M26 11.7222H2M7.33333 6.16667C4.81918 6.16667 3.5621 6.16666 2.78105 6.98026C2 7.79385 2 9.10331 2 11.7222M7.33333 6.16667V2" stroke="white" stroke-width="2.27273" stroke-linecap="round" stroke-linejoin="round"/>
</svg>
