<svg width="50" height="50" viewBox="0 0 20 20" fill="none" xmlns="http://www.w3.org/2000/svg">
<path d="M10.0656 1.875C5.58041 1.875 1.93121 5.52 1.93121 10C1.93121 14.48 5.58041 18.125 10.0656 18.125C14.5507 18.125 18.1999 14.48 18.1999 10C18.1999 5.52 14.5507 1.875 10.0656 1.875ZM10.0656 3.125C13.8743 3.125 16.9485 6.19563 16.9485 10C16.9485 13.8044 13.8743 16.875 10.0656 16.875C6.25681 16.875 3.18265 13.8044 3.18265 10C3.18265 6.19563 6.25681 3.125 10.0656 3.125ZM9.43984 6.25V9.375H6.31125V10.625H9.43984V13.75H10.6913V10.625H13.8199V9.375H10.6913V6.25H9.43984Z" fill="#898989"/>
</svg>
